<svg width="250" height="140" viewBox="0 0 250 140" fill="none" xmlns="http://www.w3.org/2000/svg">
<g clip-path="url(#clip0_201_5)">
<rect width="250" height="140" fill="#5252E5"/>
<path d="M103.798 72.4032C100.324 71.0424 98.3992 69.2453 98.0239 67.0121C97.6487 64.7788 98.9385 62.8434 101.893 61.2059L128.488 46.4679C130.483 45.3626 132.893 44.5899 135.72 44.15C138.621 43.6691 141.566 43.5397 144.553 43.7618C147.615 43.9429 150.282 44.4835 152.555 45.3836L184.891 57.8849C188.309 59.1835 190.205 60.9494 190.58 63.1826C191.013 65.4782 189.751 67.4447 186.796 69.0822L171.283 77.6794L158.297 72.6228L173.81 64.0257L141.474 51.5245L114.879 66.2624L147.216 78.7637C150.633 80.0622 152.529 81.8282 152.905 84.0614C153.337 86.3569 152.076 88.3235 149.121 89.961L122.526 104.699C120.606 105.763 118.166 106.505 115.208 106.923C112.308 107.404 109.326 107.554 106.264 107.373C103.334 107.213 100.732 106.683 98.4593 105.783L66.1228 93.282C62.6485 91.9211 60.7237 90.1241 60.3484 87.8908C59.9731 85.6576 61.263 83.7222 64.2179 82.0847L75.2989 75.9438L88.2849 81.0004L77.2038 87.1412L109.54 99.6424L136.135 84.9045L103.798 72.4032ZM136.135 84.9045L109.54 99.6424L107.635 88.4451L134.23 73.7071L136.135 84.9045ZM109.54 99.6424L77.2038 87.1412L75.2989 75.9438L107.635 88.4451L109.54 99.6424ZM173.81 64.0257L158.297 72.6228L156.392 61.4255L171.905 52.8283L173.81 64.0257ZM88.2849 81.0004L75.2989 75.9438L73.394 64.7465L86.38 69.803L88.2849 81.0004ZM75.2989 75.9438L64.2179 82.0847C61.263 83.7222 59.9731 85.6576 60.3484 87.8908L58.4435 76.6935C58.0682 74.4602 59.358 72.5248 62.313 70.8873L73.394 64.7465L75.2989 75.9438ZM152.99 84.1548C152.558 81.8593 150.633 80.0622 147.216 78.7637L114.879 66.2624L112.974 55.0651L145.311 67.5663C148.785 68.9272 150.71 70.7242 151.085 72.9575L152.99 84.1548ZM190.666 63.276C190.234 60.9805 188.309 59.1835 184.891 57.8849L152.555 45.3836C150.282 44.4835 147.615 43.9429 144.553 43.7618C141.566 43.5397 138.621 43.6691 135.72 44.15C132.893 44.5899 130.483 45.3626 128.488 46.4679L101.893 61.2059C98.9385 62.8434 97.6487 64.7788 98.0239 67.0121L96.119 55.8147C95.7438 53.5815 97.0336 51.6461 99.9885 50.0085L126.583 35.2705C128.578 34.1652 130.988 33.3926 133.815 32.9526C136.716 32.4718 139.661 32.3424 142.648 32.5644C145.71 32.7455 148.377 33.2861 150.65 34.1863L182.987 46.6875C186.461 48.0484 188.386 49.8454 188.761 52.0787L190.666 63.276Z" fill="white"/>
</g>
<defs>
<clipPath id="clip0_201_5">
<rect width="250" height="140" fill="white"/>
</clipPath>
</defs>
</svg>
