<svg width="542" height="200" viewBox="0 0 542 200" fill="none" xmlns="http://www.w3.org/2000/svg">
<rect width="542" height="200" fill="#232323"/>
<path d="M183.84 103.248C169.344 103.248 158.976 92.688 158.976 77.904C158.976 62.928 169.056 52.464 183.552 52.464C198.624 52.464 208.032 62.352 208.032 78V81.744L173.184 81.936C174.048 88.272 177.6 91.248 184.128 91.248C189.696 91.248 193.632 89.232 194.688 85.776H208.224C206.496 96.432 196.992 103.248 183.84 103.248ZM183.648 64.464C177.792 64.464 174.528 67.056 173.376 72.816H193.344C193.344 67.728 189.6 64.464 183.648 64.464ZM214.195 77.232C214.195 61.776 223.507 52.464 236.851 52.464C243.667 52.464 249.715 55.44 252.403 59.856L253.171 54H267.091V125.04H252.307V97.2C249.523 100.848 243.379 103.344 236.755 103.344C222.451 103.344 214.195 92.4 214.195 77.232ZM229.075 78C229.075 85.104 233.491 90 240.499 90C247.411 90 252.211 85.2 252.211 78C252.211 70.8 247.411 66 240.499 66C233.491 66 229.075 70.896 229.075 78ZM310.065 54H324.849V102H310.929L309.969 96.624C306.993 100.56 301.041 103.248 295.281 103.248C284.337 103.248 277.617 95.952 277.617 84.144V54H292.401V78.768C292.401 86.64 295.089 90.096 301.137 90.096C307.473 90.096 310.065 86.832 310.065 78.96V54ZM350.727 102H335.943V29.616H350.727V102Z" fill="#B54141"/>
<path d="M371.034 103.248C366.138 103.248 362.202 99.312 362.202 94.608C362.202 89.808 366.138 85.872 371.034 85.872C375.738 85.872 379.866 89.808 379.866 94.608C379.866 99.312 375.738 103.248 371.034 103.248Z" fill="#DEB938"/>
<path d="M91.784 164H86.856V148H91.464L91.784 149.664C92.584 148.544 94.152 147.488 96.456 147.488C98.856 147.488 100.392 148.608 101.32 150.304C102.152 148.608 104.04 147.488 106.344 147.488C110.472 147.488 112.52 149.888 112.52 153.536V164H107.592V154.912C107.592 152.896 106.536 151.936 104.968 151.936C103.56 151.936 102.152 152.704 102.152 155.424V164H97.224V154.912C97.224 152.928 96.2 151.968 94.632 151.968C93.224 151.968 91.784 152.736 91.784 155.424V164ZM120.876 164.416C117.484 164.416 115.372 162.432 115.372 159.296C115.372 156.352 117.452 154.528 121.292 154.24L125.772 153.888V153.632C125.772 152.064 124.812 151.232 123.052 151.232C120.972 151.232 119.852 152.032 119.852 153.472H115.756C115.756 149.856 118.732 147.488 123.308 147.488C127.948 147.488 130.572 150.08 130.572 154.656V164H126.22L125.9 161.888C125.388 163.36 123.276 164.416 120.876 164.416ZM122.604 160.768C124.492 160.768 125.804 159.84 125.804 158.016V157.152L123.308 157.376C121.164 157.568 120.396 158.048 120.396 159.072C120.396 160.224 121.1 160.768 122.604 160.768ZM139.034 164H134.106V139.872H139.034V153.76L144.218 148H150.394L144.378 154.336L150.202 164H144.506L140.922 158.016L139.034 160V164ZM154.851 145.504C153.283 145.504 152.035 144.256 152.035 142.688C152.035 141.12 153.283 139.904 154.851 139.904C156.387 139.904 157.635 141.12 157.635 142.688C157.635 144.256 156.387 145.504 154.851 145.504ZM152.419 164V148H157.347V164H152.419ZM165.972 164H161.044V148H165.684L166.004 149.664C166.996 148.288 168.82 147.488 170.9 147.488C174.708 147.488 176.916 149.92 176.916 154.112V164H171.988V155.296C171.988 153.28 170.868 151.968 169.172 151.968C167.22 151.968 165.972 153.248 165.972 155.232V164ZM179.65 155.712C179.65 150.848 182.818 147.456 187.33 147.456C189.506 147.456 191.234 148.288 192.098 149.6L192.354 148H196.994V162.976C196.994 168.704 193.698 172.16 188.226 172.16C183.33 172.16 180.034 169.376 179.586 164.832H184.578C184.674 166.624 186.018 167.68 188.194 167.68C190.562 167.68 192.066 166.272 192.066 164V161.92C191.106 163.072 189.314 163.808 187.234 163.808C182.754 163.808 179.65 160.512 179.65 155.712ZM184.61 155.584C184.61 157.888 186.146 159.52 188.322 159.52C190.562 159.52 192.066 157.952 192.066 155.584C192.066 153.248 190.562 151.744 188.29 151.744C186.114 151.744 184.61 153.312 184.61 155.584ZM216.593 164.416C211.761 164.416 208.305 160.896 208.305 155.968C208.305 150.976 211.665 147.488 216.497 147.488C221.521 147.488 224.657 150.784 224.657 156V157.248L213.041 157.312C213.329 159.424 214.513 160.416 216.689 160.416C218.545 160.416 219.857 159.744 220.209 158.592H224.721C224.145 162.144 220.977 164.416 216.593 164.416ZM216.529 151.488C214.577 151.488 213.489 152.352 213.105 154.272H219.761C219.761 152.576 218.513 151.488 216.529 151.488ZM234.295 164.416C229.687 164.416 226.711 161.152 226.711 156.096C226.711 151.008 229.751 147.488 234.615 147.488C236.599 147.488 238.487 148.288 239.415 149.472V139.872H244.343V164H239.703L239.447 161.952C238.583 163.424 236.599 164.416 234.295 164.416ZM235.479 159.904C237.783 159.904 239.383 158.304 239.383 155.904C239.383 153.504 237.783 151.904 235.479 151.904C233.143 151.904 231.671 153.536 231.671 155.904C231.671 158.272 233.143 159.904 235.479 159.904ZM258.668 148H263.596V164H258.956L258.636 162.208C257.644 163.52 255.66 164.416 253.74 164.416C250.092 164.416 247.852 161.984 247.852 158.048V148H252.78V156.256C252.78 158.88 253.676 160.032 255.692 160.032C257.804 160.032 258.668 158.944 258.668 156.32V148ZM266.117 155.936C266.117 151.008 269.509 147.488 274.309 147.488C279.045 147.488 282.181 150.08 282.501 154.272H277.541C277.189 152.672 276.197 151.904 274.501 151.904C272.421 151.904 271.077 153.472 271.077 155.936C271.077 158.496 272.325 160 274.437 160C276.165 160 277.221 159.2 277.541 157.632H282.501C282.181 161.664 278.917 164.416 274.437 164.416C269.381 164.416 266.117 161.056 266.117 155.936ZM290.032 164.416C286.64 164.416 284.528 162.432 284.528 159.296C284.528 156.352 286.608 154.528 290.448 154.24L294.928 153.888V153.632C294.928 152.064 293.968 151.232 292.208 151.232C290.128 151.232 289.008 152.032 289.008 153.472H284.912C284.912 149.856 287.888 147.488 292.464 147.488C297.104 147.488 299.728 150.08 299.728 154.656V164H295.376L295.056 161.888C294.544 163.36 292.432 164.416 290.032 164.416ZM291.76 160.768C293.648 160.768 294.96 159.84 294.96 158.016V157.152L292.464 157.376C290.32 157.568 289.552 158.048 289.552 159.072C289.552 160.224 290.256 160.768 291.76 160.768ZM309.57 164H304.642V152.096H301.602V148H304.642V143.04H309.57V148H312.61V152.096H309.57V164ZM317.257 145.504C315.689 145.504 314.441 144.256 314.441 142.688C314.441 141.12 315.689 139.904 317.257 139.904C318.793 139.904 320.041 141.12 320.041 142.688C320.041 144.256 318.793 145.504 317.257 145.504ZM314.825 164V148H319.753V164H314.825ZM322.586 155.968C322.586 150.912 326.298 147.52 331.418 147.52C336.506 147.52 340.218 150.912 340.218 155.968C340.218 161.024 336.506 164.384 331.418 164.384C326.298 164.384 322.586 161.024 322.586 155.968ZM327.546 155.936C327.546 158.368 329.114 159.968 331.418 159.968C333.69 159.968 335.258 158.368 335.258 155.936C335.258 153.536 333.69 151.936 331.418 151.936C329.114 151.936 327.546 153.536 327.546 155.936ZM348.003 164H343.075V148H347.715L348.035 149.664C349.027 148.288 350.851 147.488 352.931 147.488C356.739 147.488 358.947 149.92 358.947 154.112V164H354.019V155.296C354.019 153.28 352.899 151.968 351.203 151.968C349.251 151.968 348.003 153.248 348.003 155.232V164ZM368.497 162.368C368.497 165.44 366.353 167.808 363.345 168.128V166.368C364.945 166.08 366.097 165.216 366.193 163.904C365.937 164.032 365.617 164.096 365.265 164.096C363.761 164.096 362.609 162.976 362.609 161.568C362.609 159.808 363.697 158.624 365.361 158.624C367.217 158.624 368.497 160.16 368.497 162.368Z" fill="#EEEEEE"/>
<path d="M388.218 164.416C383.386 164.416 379.93 160.896 379.93 155.968C379.93 150.976 383.29 147.488 388.122 147.488C393.146 147.488 396.282 150.784 396.282 156V157.248L384.666 157.312C384.954 159.424 386.138 160.416 388.314 160.416C390.17 160.416 391.482 159.744 391.834 158.592H396.346C395.77 162.144 392.602 164.416 388.218 164.416ZM388.154 151.488C386.202 151.488 385.114 152.352 384.73 154.272H391.386C391.386 152.576 390.138 151.488 388.154 151.488ZM398.336 155.744C398.336 150.592 401.44 147.488 405.888 147.488C408.16 147.488 410.176 148.48 411.072 149.952L411.328 148H415.968V171.68H411.04V162.4C410.112 163.616 408.064 164.448 405.856 164.448C401.088 164.448 398.336 160.8 398.336 155.744ZM403.296 156C403.296 158.368 404.768 160 407.104 160C409.408 160 411.008 158.4 411.008 156C411.008 153.6 409.408 152 407.104 152C404.768 152 403.296 153.632 403.296 156ZM430.293 148H435.221V164H430.581L430.261 162.208C429.269 163.52 427.285 164.416 425.365 164.416C421.717 164.416 419.477 161.984 419.477 158.048V148H424.405V156.256C424.405 158.88 425.301 160.032 427.317 160.032C429.429 160.032 430.293 158.944 430.293 156.32V148ZM443.847 164H438.919V139.872H443.847V164Z" fill="#B54141"/>
<path d="M450.616 164.416C448.984 164.416 447.672 163.104 447.672 161.536C447.672 159.936 448.984 158.624 450.616 158.624C452.184 158.624 453.56 159.936 453.56 161.536C453.56 163.104 452.184 164.416 450.616 164.416Z" fill="#DEB938"/>
</svg>
