<svg width="116" height="146" viewBox="0 0 116 146" fill="none" xmlns="http://www.w3.org/2000/svg">
<path d="M56.75 11.375C56.75 12.125 56.4583 13.0417 55.875 14.125C55.375 15.125 54.6667 16.0833 53.75 17C52.9167 17.8333 51.9583 18.5833 50.875 19.25C49.875 19.8333 48.8333 20.125 47.75 20.125C46.8333 20.125 46 19.6667 45.25 18.75C44.5 17.8333 44.1667 16.5833 44.25 15C44.25 13.9167 44.5417 12.7917 45.125 11.625C45.7917 10.375 46.5833 9.25 47.5 8.25C48.5 7.25 49.5417 6.45833 50.625 5.875C51.7917 5.20833 52.875 4.875 53.875 4.875C55.2917 4.875 56.125 5.54167 56.375 6.875C56.7083 8.20833 56.8333 9.70833 56.75 11.375ZM13 145.375C10.75 145.375 8.79167 144.75 7.125 143.5C5.45833 142.25 4.125 140.667 3.125 138.75C2.04167 136.833 1.25 134.75 0.75 132.5C0.25 130.25 0.0416667 128.125 0.125 126.125C0.208333 124.375 0.875 122.125 2.125 119.375C3.29167 116.625 4.95833 113.667 7.125 110.5C9.29167 107.417 11.9167 104.25 15 101C18.0833 97.8333 21.5 95 25.25 92.5C25.75 89.9167 26.2917 87.2917 26.875 84.625C27.375 81.875 27.875 79.25 28.375 76.75C28.875 74.1667 29.375 71.75 29.875 69.5C30.4583 67.1667 31 65.125 31.5 63.375C32.0833 61.125 32.7083 58.75 33.375 56.25C33.9583 54.0833 34.625 51.7083 35.375 49.125C36.125 46.4583 36.9167 43.7917 37.75 41.125C38.5833 40.7083 39.375 40.4167 40.125 40.25C40.875 40.0833 41.5417 39.9583 42.125 39.875C42.7917 39.7917 43.4167 39.7917 44 39.875C44.5833 39.9583 45.1667 40.125 45.75 40.375C46.8333 40.7917 47.7917 41.5417 48.625 42.625C47.2083 47.125 46 50.9583 45 54.125C44.0833 57.2917 43.2917 59.9167 42.625 62C41.875 64.4167 41.2917 66.4583 40.875 68.125C40.125 70.4583 39.4583 73.125 38.875 76.125C38.2917 79.0417 37.625 82.2083 36.875 85.625C40.375 83.4583 43.875 80.9167 47.375 78C50.9583 75.0833 54.2083 72.25 57.125 69.5C60.125 66.6667 62.625 64.2083 64.625 62.125C66.7083 59.9583 68 58.5833 68.5 58C69.0833 57.3333 69.6667 57 70.25 57C70.8333 56.9167 71.2917 57.0833 71.625 57.5C72.0417 57.9167 72.2083 58.5417 72.125 59.375C72.125 60.125 71.75 61 71 62C69.8333 63.6667 68.0833 65.7917 65.75 68.375C63.4167 70.875 60.75 73.5417 57.75 76.375C54.75 79.125 51.5 81.9167 48 84.75C44.5833 87.5 41.1667 89.875 37.75 91.875C37 92.2917 36.1667 92.8333 35.25 93.5C34.0833 98.4167 32.9583 103.25 31.875 108C30.7917 112.75 29.5833 117.167 28.25 121.25C27 125.25 25.875 128.75 24.875 131.75C23.875 134.833 22.8333 137.375 21.75 139.375C20.6667 141.375 19.4583 142.875 18.125 143.875C16.7083 144.875 15 145.375 13 145.375ZM8.5 129.625C8.33333 132.542 8.54167 134.708 9.125 136.125C9.70833 137.625 10.5 138.375 11.5 138.375C12.1667 138.375 12.9167 137.667 13.75 136.25C14.5 134.833 15.25 133.042 16 130.875C16.6667 128.708 17.375 126.333 18.125 123.75C18.7917 121.25 19.4167 118.875 20 116.625C20.5 114.375 20.9167 112.458 21.25 110.875C21.5833 109.292 21.7917 108.375 21.875 108.125C22.0417 107.458 22.2083 106.75 22.375 106C22.5417 105.25 22.7083 104.417 22.875 103.5C20.9583 105.5 19.1667 107.542 17.5 109.625C15.75 111.792 14.25 114 13 116.25C11.6667 118.5 10.625 120.75 9.875 123C9.04167 125.25 8.58333 127.458 8.5 129.625ZM107.375 57C107.708 56.5 108.125 56.2083 108.625 56.125C109.208 55.9583 109.667 56 110 56.25C110.333 56.5 110.5 56.9167 110.5 57.5C110.583 58.0833 110.375 58.875 109.875 59.875C108.208 63.0417 106 66.4583 103.25 70.125C100.583 73.7917 97.75 77.25 94.75 80.5C91.75 83.6667 88.8333 86.2917 86 88.375C83.1667 90.4583 80.7917 91.5 78.875 91.5C76.125 91.5 73.8333 90.9583 72 89.875C70.1667 88.7917 68.7083 87.4583 67.625 85.875C66.625 84.2917 65.9167 82.5833 65.5 80.75C65.0833 78.8333 64.9583 77.0833 65.125 75.5C65.2083 74.1667 65.5 71.7917 66 68.375C66.5 64.875 67.1667 60.875 68 56.375C68.8333 51.7917 69.75 46.9167 70.75 41.75C71.8333 36.5 72.9583 31.4583 74.125 26.625C72.7083 26.7917 71.2917 26.9583 69.875 27.125C68.4583 27.2917 67.1667 27.375 66 27.375C63.3333 27.375 60.8333 27.0833 58.5 26.5C56.0833 25.8333 54.2917 25.2083 53.125 24.625C52.4583 24.2917 52.1667 23.8333 52.25 23.25C52.3333 22.5833 52.5833 21.9583 53 21.375C53.4167 20.7083 53.9583 20.1667 54.625 19.75C55.2083 19.25 55.75 19 56.25 19C57.8333 19.1667 59.5417 19.3333 61.375 19.5C63.2083 19.5833 65.2083 19.5833 67.375 19.5C68.9583 19.4167 70.4583 19.2917 71.875 19.125C73.375 18.9583 74.8333 18.75 76.25 18.5C77.3333 14.5 78.375 11.0417 79.375 8.125C80.4583 5.125 81.4167 3.04167 82.25 1.875C82.5 1.45833 83.0417 1.125 83.875 0.875C84.7917 0.541667 85.75 0.333333 86.75 0.25C87.75 0.0833333 88.7083 0.0833333 89.625 0.25C90.5417 0.333333 91.2083 0.625 91.625 1.125C92.0417 1.79167 92.2083 3.5 92.125 6.25C92.0417 9 91.5833 12.5 90.75 16.75C94.25 16.75 97.3333 16.9583 100 17.375C102.75 17.7083 105.083 18.125 107 18.625C108.917 19.0417 110.458 19.5 111.625 20C112.792 20.4167 113.667 20.7083 114.25 20.875C114.833 21.0417 115.125 21.4583 115.125 22.125C115.208 22.7917 115.083 23.5 114.75 24.25C114.5 24.9167 114.042 25.5 113.375 26C112.708 26.5 111.958 26.6667 111.125 26.5C110.292 26.4167 109.333 26.25 108.25 26C107.25 25.75 106 25.5417 104.5 25.375C103.083 25.2083 101.375 25.0417 99.375 24.875C97.375 24.7083 95.0417 24.625 92.375 24.625C91.875 24.625 91.2917 24.6667 90.625 24.75C90.0417 24.75 89.4167 24.75 88.75 24.75C88.4167 26.0833 88.0833 27.4167 87.75 28.75C87.5 30 87.125 31.3333 86.625 32.75C85.5417 36.0833 84.2917 39.7083 82.875 43.625C81.625 47.0417 80.125 50.9583 78.375 55.375C76.625 59.7917 74.6667 64.5 72.5 69.5C72 73.0833 72.0417 75.8333 72.625 77.75C73.2917 79.5833 74.0833 80.9167 75 81.75C76.0833 82.6667 77.4167 83.1667 79 83.25C80.25 83.4167 81.75 83 83.5 82C85.3333 80.9167 87.2083 79.5 89.125 77.75C91.0417 76 92.9583 74.0833 94.875 72C96.875 69.9167 98.7083 67.875 100.375 65.875C102.042 63.875 103.5 62.0833 104.75 60.5C106 58.8333 106.875 57.6667 107.375 57Z" fill="white"/>
</svg>
