<svg width="380" height="140" viewBox="0 0 380 140" fill="none" xmlns="http://www.w3.org/2000/svg">
<rect width="379.4" height="140" fill="#232323"/>
<path d="M128.688 71.8736C118.541 71.8736 111.283 64.4816 111.283 54.1328C111.283 43.6496 118.339 36.3248 128.486 36.3248C139.037 36.3248 145.622 43.2464 145.622 54.2V56.8208L121.229 56.9552C121.834 61.3904 124.32 63.4736 128.89 63.4736C132.787 63.4736 135.542 62.0624 136.282 59.6432H145.757C144.547 67.1024 137.894 71.8736 128.688 71.8736ZM128.554 44.7248C124.454 44.7248 122.17 46.5392 121.363 50.5712H135.341C135.341 47.0096 132.72 44.7248 128.554 44.7248ZM149.936 53.6624C149.936 42.8432 156.455 36.3248 165.795 36.3248C170.567 36.3248 174.8 38.408 176.682 41.4992L177.219 37.4H186.963V87.128H176.615V67.64C174.666 70.1936 170.365 71.9408 165.728 71.9408C155.715 71.9408 149.936 64.28 149.936 53.6624ZM160.352 54.2C160.352 59.1728 163.443 62.6 168.349 62.6C173.187 62.6 176.547 59.24 176.547 54.2C176.547 49.16 173.187 45.8 168.349 45.8C163.443 45.8 160.352 49.2272 160.352 54.2ZM217.045 37.4H227.394V71H217.65L216.978 67.2368C214.895 69.992 210.729 71.8736 206.697 71.8736C199.036 71.8736 194.332 66.7664 194.332 58.5008V37.4H204.681V54.7376C204.681 60.248 206.562 62.6672 210.796 62.6672C215.231 62.6672 217.045 60.3824 217.045 54.872V37.4ZM245.509 71H235.16V20.3312H245.509V71Z" fill="#B54141"/>
<path d="M259.724 71.8736C256.297 71.8736 253.541 69.1184 253.541 65.8256C253.541 62.4656 256.297 59.7104 259.724 59.7104C263.017 59.7104 265.906 62.4656 265.906 65.8256C265.906 69.1184 263.017 71.8736 259.724 71.8736Z" fill="#DEB938"/>
<path d="M64.2488 115H60.7992V103.8H64.0248L64.2488 104.965C64.8088 104.181 65.9064 103.442 67.5192 103.442C69.1992 103.442 70.2744 104.226 70.924 105.413C71.5064 104.226 72.828 103.442 74.4408 103.442C77.3304 103.442 78.764 105.122 78.764 107.675V115H75.3144V108.638C75.3144 107.227 74.5752 106.555 73.4776 106.555C72.492 106.555 71.5064 107.093 71.5064 108.997V115H68.0568V108.638C68.0568 107.25 67.34 106.578 66.2424 106.578C65.2568 106.578 64.2488 107.115 64.2488 108.997V115ZM84.6128 115.291C82.2384 115.291 80.76 113.902 80.76 111.707C80.76 109.646 82.216 108.37 84.904 108.168L88.04 107.922V107.742C88.04 106.645 87.368 106.062 86.136 106.062C84.68 106.062 83.896 106.622 83.896 107.63H81.0288C81.0288 105.099 83.112 103.442 86.3153 103.442C89.5632 103.442 91.4 105.256 91.4 108.459V115H88.3536L88.1297 113.522C87.7713 114.552 86.2928 115.291 84.6128 115.291ZM85.8224 112.738C87.1441 112.738 88.0624 112.088 88.0624 110.811V110.206L86.3153 110.363C84.8144 110.498 84.2768 110.834 84.2768 111.55C84.2768 112.357 84.7696 112.738 85.8224 112.738ZM97.3238 115H93.8742V98.1104H97.3238V107.832L100.953 103.8H105.276L101.065 108.235L105.141 115H101.154L98.6454 110.811L97.3238 112.2V115ZM108.395 102.053C107.298 102.053 106.424 101.179 106.424 100.082C106.424 98.984 107.298 98.1328 108.395 98.1328C109.471 98.1328 110.344 98.984 110.344 100.082C110.344 101.179 109.471 102.053 108.395 102.053ZM106.693 115V103.8H110.143V115H106.693ZM116.18 115H112.73V103.8H115.978L116.202 104.965C116.897 104.002 118.174 103.442 119.63 103.442C122.295 103.442 123.841 105.144 123.841 108.078V115H120.391V108.907C120.391 107.496 119.607 106.578 118.42 106.578C117.054 106.578 116.18 107.474 116.18 108.862V115ZM125.755 109.198C125.755 105.794 127.972 103.419 131.131 103.419C132.654 103.419 133.864 104.002 134.468 104.92L134.648 103.8H137.896V114.283C137.896 118.293 135.588 120.712 131.758 120.712C128.331 120.712 126.024 118.763 125.71 115.582H129.204C129.272 116.837 130.212 117.576 131.736 117.576C133.393 117.576 134.446 116.59 134.446 115V113.544C133.774 114.35 132.52 114.866 131.064 114.866C127.928 114.866 125.755 112.558 125.755 109.198ZM129.227 109.109C129.227 110.722 130.302 111.864 131.825 111.864C133.393 111.864 134.446 110.766 134.446 109.109C134.446 107.474 133.393 106.421 131.803 106.421C130.28 106.421 129.227 107.518 129.227 109.109ZM151.615 115.291C148.232 115.291 145.813 112.827 145.813 109.378C145.813 105.883 148.165 103.442 151.548 103.442C155.064 103.442 157.26 105.749 157.26 109.4V110.274L149.128 110.318C149.33 111.797 150.159 112.491 151.682 112.491C152.981 112.491 153.9 112.021 154.146 111.214H157.304C156.901 113.701 154.684 115.291 151.615 115.291ZM151.57 106.242C150.204 106.242 149.442 106.846 149.173 108.19H153.832C153.832 107.003 152.959 106.242 151.57 106.242ZM164.006 115.291C160.781 115.291 158.698 113.006 158.698 109.467C158.698 105.906 160.826 103.442 164.23 103.442C165.619 103.442 166.941 104.002 167.59 104.83V98.1104H171.04V115H167.792L167.613 113.566C167.008 114.597 165.619 115.291 164.006 115.291ZM164.835 112.133C166.448 112.133 167.568 111.013 167.568 109.333C167.568 107.653 166.448 106.533 164.835 106.533C163.2 106.533 162.17 107.675 162.17 109.333C162.17 110.99 163.2 112.133 164.835 112.133ZM181.067 103.8H184.517V115H181.269L181.045 113.746C180.35 114.664 178.962 115.291 177.618 115.291C175.064 115.291 173.496 113.589 173.496 110.834V103.8H176.946V109.579C176.946 111.416 177.573 112.222 178.984 112.222C180.462 112.222 181.067 111.461 181.067 109.624V103.8ZM186.282 109.355C186.282 105.906 188.656 103.442 192.016 103.442C195.332 103.442 197.527 105.256 197.751 108.19H194.279C194.032 107.07 193.338 106.533 192.151 106.533C190.695 106.533 189.754 107.63 189.754 109.355C189.754 111.147 190.628 112.2 192.106 112.2C193.316 112.2 194.055 111.64 194.279 110.542H197.751C197.527 113.365 195.242 115.291 192.106 115.291C188.567 115.291 186.282 112.939 186.282 109.355ZM203.022 115.291C200.648 115.291 199.169 113.902 199.169 111.707C199.169 109.646 200.625 108.37 203.313 108.168L206.449 107.922V107.742C206.449 106.645 205.777 106.062 204.545 106.062C203.089 106.062 202.305 106.622 202.305 107.63H199.438C199.438 105.099 201.521 103.442 204.725 103.442C207.973 103.442 209.809 105.256 209.809 108.459V115H206.763L206.539 113.522C206.181 114.552 204.702 115.291 203.022 115.291ZM204.232 112.738C205.553 112.738 206.472 112.088 206.472 110.811V110.206L204.725 110.363C203.224 110.498 202.686 110.834 202.686 111.55C202.686 112.357 203.179 112.738 204.232 112.738ZM216.699 115H213.249V106.667H211.121V103.8H213.249V100.328H216.699V103.8H218.827V106.667H216.699V115ZM222.08 102.053C220.982 102.053 220.109 101.179 220.109 100.082C220.109 98.984 220.982 98.1328 222.08 98.1328C223.155 98.1328 224.029 98.984 224.029 100.082C224.029 101.179 223.155 102.053 222.08 102.053ZM220.377 115V103.8H223.827V115H220.377ZM225.81 109.378C225.81 105.838 228.408 103.464 231.992 103.464C235.554 103.464 238.152 105.838 238.152 109.378C238.152 112.917 235.554 115.269 231.992 115.269C228.408 115.269 225.81 112.917 225.81 109.378ZM229.282 109.355C229.282 111.058 230.38 112.178 231.992 112.178C233.583 112.178 234.68 111.058 234.68 109.355C234.68 107.675 233.583 106.555 231.992 106.555C230.38 106.555 229.282 107.675 229.282 109.355ZM243.602 115H240.152V103.8H243.4L243.624 104.965C244.319 104.002 245.596 103.442 247.052 103.442C249.717 103.442 251.263 105.144 251.263 108.078V115H247.813V108.907C247.813 107.496 247.029 106.578 245.842 106.578C244.476 106.578 243.602 107.474 243.602 108.862V115ZM257.948 113.858C257.948 116.008 256.447 117.666 254.341 117.89V116.658C255.462 116.456 256.268 115.851 256.335 114.933C256.156 115.022 255.932 115.067 255.686 115.067C254.633 115.067 253.826 114.283 253.826 113.298C253.826 112.066 254.588 111.237 255.753 111.237C257.052 111.237 257.948 112.312 257.948 113.858Z" fill="#EEEEEE"/>
<path d="M271.752 115.291C268.37 115.291 265.951 112.827 265.951 109.378C265.951 105.883 268.303 103.442 271.685 103.442C275.202 103.442 277.397 105.749 277.397 109.4V110.274L269.266 110.318C269.467 111.797 270.296 112.491 271.819 112.491C273.119 112.491 274.037 112.021 274.283 111.214H277.442C277.039 113.701 274.821 115.291 271.752 115.291ZM271.707 106.242C270.341 106.242 269.579 106.846 269.311 108.19H273.97C273.97 107.003 273.096 106.242 271.707 106.242ZM278.835 109.221C278.835 105.614 281.008 103.442 284.121 103.442C285.712 103.442 287.123 104.136 287.75 105.166L287.929 103.8H291.177V120.376H287.728V113.88C287.078 114.731 285.645 115.314 284.099 115.314C280.761 115.314 278.835 112.76 278.835 109.221ZM282.307 109.4C282.307 111.058 283.337 112.2 284.973 112.2C286.585 112.2 287.705 111.08 287.705 109.4C287.705 107.72 286.585 106.6 284.973 106.6C283.337 106.6 282.307 107.742 282.307 109.4ZM301.205 103.8H304.654V115H301.406L301.182 113.746C300.488 114.664 299.099 115.291 297.755 115.291C295.202 115.291 293.634 113.589 293.634 110.834V103.8H297.083V109.579C297.083 111.416 297.71 112.222 299.122 112.222C300.6 112.222 301.205 111.461 301.205 109.624V103.8ZM310.693 115H307.243V98.1104H310.693V115Z" fill="#B54141"/>
<path d="M315.431 115.291C314.288 115.291 313.37 114.373 313.37 113.275C313.37 112.155 314.288 111.237 315.431 111.237C316.528 111.237 317.492 112.155 317.492 113.275C317.492 114.373 316.528 115.291 315.431 115.291Z" fill="#DEB938"/>
</svg>
